<?xml version="1.0" encoding="UTF-8"?><svg id="a" xmlns="http://www.w3.org/2000/svg" viewBox="0 0 283.6 63.67"><path d="M198.15,23.71l-.11,1.32.83,24.07c.02.51-.15.94-.5,1.27-.35.33-.77.5-1.27.5h-2.1c-.33,0-.57-.07-.7-.21-.14-.14-.21-.37-.21-.7V14.6c0-.31.06-.53.17-.65.11-.12.37-.18.77-.18h4.03c.44,0,.86.16,1.24.48.39.32.6.73.63,1.23l2.43,27.3,2.4-27.3c.06-.5.28-.91.66-1.23.39-.32.8-.48,1.24-.48h4.14c.37,0,.6.06.69.18.09.12.14.34.14.65v35.36c0,.33-.07.57-.19.7-.13.14-.36.21-.69.21h-2.13c-.5,0-.92-.17-1.26-.5s-.51-.75-.51-1.27l.86-24.07-.14-1.35-2.71,26.22c-.02.37-.11.62-.26.76-.16.14-.41.21-.76.21h-2.98c-.37,0-.63-.07-.77-.21-.15-.14-.24-.39-.28-.76l-2.68-26.2Z" fill="#a1a1a1"/><path d="M229.68,13.77c.28,0,.5.08.66.23.17.16.25.38.25.68v.72c0,.77-.18,1.37-.55,1.78s-.89.62-1.57.62h-3.06v12.67h3.56c.59,0,.88.3.88.91v.72c0,.77-.18,1.37-.54,1.79-.36.42-.88.63-1.56.63h-2.35v12.31h3.06c.68,0,1.21.21,1.57.62s.55,1.01.55,1.78v.72c0,.29-.08.52-.25.68-.17.16-.39.24-.66.24h-8.09c-.41,0-.67-.06-.79-.18-.12-.12-.18-.34-.18-.68V14.65c0-.33.05-.56.17-.69.11-.13.34-.19.69-.19h8.2Z" fill="#a1a1a1"/><path d="M239.23,50.87c-.39,0-.64-.06-.77-.18-.13-.12-.19-.35-.19-.7V14.65c0-.33.05-.56.17-.69.11-.13.34-.19.69-.19h5.52c.99,0,1.88.14,2.65.43.77.29,1.42.68,1.95,1.17.52.5.92,1.07,1.2,1.71.28.64.41,1.32.41,2.04v26.39c0,.79-.15,1.51-.46,2.17s-.73,1.21-1.28,1.68c-.55.47-1.22.84-2.02,1.1s-1.67.4-2.62.4h-5.24ZM244.67,46.84c.44,0,.79-.15,1.04-.44.25-.29.37-.6.37-.91v-26.33c0-.33-.13-.64-.4-.92-.27-.29-.64-.43-1.12-.43h-1.52v29.04h1.63Z" fill="#a1a1a1"/><path d="M263.52,49.88c0,.37-.07.63-.22.77s-.4.22-.75.22h-2.84c-.35,0-.6-.07-.75-.22-.15-.15-.22-.41-.22-.77V15.51c0-.51.17-.93.52-1.26.35-.32.75-.48,1.21-.48h2.21c.37,0,.6.06.69.18.09.12.14.34.14.65v35.28Z" fill="#a1a1a1"/><path d="M283.59,50.01c.04.31,0,.53-.08.66s-.31.19-.66.19h-2.32c-.46,0-.87-.16-1.23-.48-.36-.32-.55-.73-.57-1.23l-.28-4.36h-2.79l-.25,4.36c-.04.5-.23.91-.59,1.23-.36.32-.76.48-1.2.48h-2.29c-.37,0-.6-.06-.69-.19s-.12-.35-.08-.66l3.2-35.28c.04-.39.15-.64.35-.77.19-.13.47-.19.84-.19h4.25c.39,0,.67.06.86.19.18.13.29.39.33.77l3.2,35.28ZM275.86,40.93h2.43l-1.21-21.48-1.21,21.48Z" fill="#a1a1a1"/><path d="M.17,13.96c.11-.13.34-.19.69-.19h2.18c.46,0,.86.17,1.21.5.35.33.52.74.52,1.21v31.36h3.06c1.42,0,2.13.8,2.13,2.4v.72c0,.29-.08.52-.25.68-.17.16-.39.24-.66.24H.86c-.35,0-.58-.07-.69-.21-.11-.14-.17-.36-.17-.68V14.65c0-.33.06-.56.17-.69Z" fill="#fff"/><path d="M22.47,46.85c.24.29.63.43,1.16.43.5,0,.87-.13,1.13-.4.26-.27.39-.57.39-.92V15.48c0-.48.17-.88.52-1.21.35-.33.75-.5,1.19-.5h2.21c.35,0,.58.06.69.19.11.13.17.36.17.69v31.5c0,.68-.14,1.34-.41,1.97-.28.63-.68,1.2-1.2,1.7-.52.5-1.17.89-1.95,1.19s-1.66.44-2.65.44-1.89-.14-2.68-.43c-.79-.29-1.46-.67-2-1.16-.54-.49-.96-1.05-1.26-1.68-.29-.63-.44-1.31-.44-2.03V14.65c0-.33.05-.56.17-.69.11-.13.34-.19.69-.19h2.18c.46,0,.87.17,1.21.5.35.33.52.74.52,1.21v30.47c0,.31.12.61.36.9Z" fill="#fff"/><path d="M41.93,23.71l-.11,1.32.83,24.07c.02.51-.15.94-.5,1.27-.35.33-.77.5-1.27.5h-2.1c-.33,0-.57-.07-.7-.21-.14-.14-.21-.37-.21-.7V14.6c0-.31.06-.53.17-.65.11-.12.37-.18.77-.18h4.03c.44,0,.86.16,1.24.48.39.32.6.73.64,1.23l2.43,27.3,2.4-27.3c.06-.5.28-.91.66-1.23.39-.32.8-.48,1.24-.48h4.14c.37,0,.6.06.69.18.09.12.14.34.14.65v35.36c0,.33-.06.57-.19.7-.13.14-.36.21-.69.21h-2.13c-.5,0-.92-.17-1.26-.5-.34-.33-.51-.75-.51-1.27l.86-24.07-.14-1.35-2.71,26.22c-.02.37-.11.62-.26.76-.16.14-.41.21-.76.21h-2.98c-.37,0-.63-.07-.77-.21-.15-.14-.24-.39-.28-.76l-2.68-26.2Z" fill="#fff"/><path d="M73.45,13.77c.28,0,.5.08.66.23.17.16.25.38.25.68v.72c0,.77-.18,1.37-.55,1.78s-.89.62-1.57.62h-3.06v12.67h3.56c.59,0,.88.3.88.91v.72c0,.77-.18,1.37-.54,1.79-.36.42-.88.63-1.56.63h-2.35v12.31h3.06c.68,0,1.21.21,1.57.62s.55,1.01.55,1.78v.72c0,.29-.08.52-.25.68-.17.16-.39.24-.66.24h-8.09c-.41,0-.67-.06-.79-.18-.12-.12-.18-.34-.18-.68V14.65c0-.33.06-.56.17-.69.11-.13.34-.19.69-.19h8.2Z" fill="#fff"/><path d="M92.36,13.77c.28,0,.5.08.66.23.17.16.25.38.25.68v.72c0,.77-.18,1.37-.55,1.78-.37.41-.89.62-1.57.62h-1.52v32.1c0,.37-.07.62-.22.76-.15.14-.4.21-.75.21h-2.9c-.35,0-.59-.07-.73-.21-.14-.14-.21-.39-.21-.76V17.8h-1.68c-.68,0-1.21-.21-1.57-.62-.37-.41-.55-1.01-.55-1.78v-.72c0-.29.08-.52.25-.68.17-.16.39-.23.66-.23h10.43Z" fill="#fff"/><path d="M112.79,49.99c0,.33-.06.56-.17.69s-.34.19-.69.19h-2.21c-.44,0-.84-.17-1.19-.5-.35-.33-.52-.74-.52-1.21v-11.79c0-.33-.13-.63-.4-.91-.27-.28-.64-.41-1.12-.41h-1.52v13.11c0,.48-.18.88-.52,1.21s-.75.5-1.21.5h-2.18c-.35,0-.58-.06-.69-.19s-.17-.36-.17-.69V14.65c0-.33.06-.56.17-.69.11-.13.34-.19.69-.19h5.52c.99,0,1.88.15,2.65.44.77.29,1.42.69,1.95,1.19.52.5.92,1.07,1.2,1.71.28.64.41,1.32.41,2.02v11.23c0,1.79-.72,3.07-2.15,3.86.7.26,1.23.63,1.6,1.13.37.5.55,1.16.55,1.99v12.64ZM104.98,17.8v14.22h1.63c.48,0,.83-.18,1.06-.55.23-.37.35-.75.35-1.16v-11.15c0-.33-.13-.64-.4-.92-.27-.29-.64-.43-1.12-.43h-1.52Z" fill="#fff"/><path d="M128.41,49.88c0,.37-.07.63-.22.77-.15.15-.4.22-.75.22h-2.84c-.35,0-.6-.07-.75-.22s-.22-.41-.22-.77v-10.41l-3.89-24.68c-.06-.31-.02-.56.1-.75.12-.18.36-.28.73-.28h1.99c.22,0,.45.04.69.12s.46.2.66.36c.2.16.37.34.5.55.13.21.2.44.22.68l1.41,17.2,1.35-17.2c.02-.24.1-.46.23-.68s.31-.4.51-.55c.2-.16.42-.28.66-.36.24-.08.47-.12.69-.12h1.99c.37,0,.61.09.73.28.12.18.15.43.1.75l-3.89,24.65v10.43Z" fill="#fff"/><path d="M183.89,16.03c-1.13-4.52-3.77-8.64-7.43-11.54-1.83-1.45-3.9-2.59-6.11-3.35-2.21-.76-4.54-1.13-6.86-1.14-2.32,0-4.66.36-6.87,1.13-2.21.75-4.29,1.89-6.12,3.34-3.66,2.89-6.3,7.01-7.44,11.53-.57,2.26-.77,4.62-.56,6.94.2,2.33.81,4.61,1.78,6.73.48,1.06,1.05,2.08,1.69,3.05.64.97,1.37,1.89,2.18,2.74,1.48,1.57,3.23,2.8,5,3.88.24,1.27.45,2.56.62,3.83.09.72.18,1.45.22,2.15.01.17.02.35.02.51v.25c0,.15.02.3.04.46.08.63.42,1.25.83,1.66.41.42.86.68,1.28.89.43.2.84.34,1.25.46.82.23,1.61.35,2.39.45,1.56.18,3.08.24,4.58.29,1.5.05,2.99.08,4.43.18.72.05,1.43.13,2.08.25.32.06.63.14.88.23-.49.15-1.08.27-1.67.36-1.41.21-2.89.33-4.38.46-1.49.13-2.99.24-4.52.44-.76.1-1.53.21-2.33.39-.4.09-.8.19-1.22.34-.21.07-.43.16-.65.27-.23.11-.46.25-.72.46-.25.21-.54.51-.71.99-.08.23-.12.5-.11.72,0,.22.05.45.13.67.16.45.47.78.74.99.28.22.53.34.78.45.49.2.92.29,1.34.36.42.06.83.09,1.22.11,1.58.06,3.08-.03,4.58-.07.74-.03,1.48-.05,2.21-.04.72,0,1.45.04,2.09.16.31.06.62.15.78.25.08.05.11.08.13.1,0,.01.02.02.02.05,0,.04,0,.08,0,.12-.01.14-.14.33-.39.51-.24.17-.55.32-.88.45-1.33.51-2.83.78-4.27,1.24-.72.23-1.46.49-2.09.95-.31.23-.6.53-.73.9-.14.37-.09.78.04,1.13-.08-.36-.08-.75.09-1.07.16-.32.44-.56.75-.73.63-.35,1.36-.51,2.08-.65.73-.14,1.46-.23,2.21-.34.74-.11,1.49-.22,2.26-.43.38-.11.77-.23,1.17-.45.2-.11.4-.25.58-.44.18-.19.35-.44.44-.73.04-.14.07-.29.07-.44,0-.16-.01-.33-.06-.5-.1-.34-.33-.61-.54-.78-.44-.35-.86-.49-1.27-.62-.81-.23-1.59-.33-2.36-.42-.77-.08-1.53-.13-2.28-.18-1.5-.1-3-.16-4.39-.35-.35-.05-.69-.11-1-.18-.15-.03-.3-.07-.43-.1,0,0,.02,0,.02,0,.28-.1.61-.18.94-.26.67-.15,1.38-.25,2.1-.35,1.44-.18,2.92-.3,4.42-.42,1.49-.13,3-.25,4.55-.48.39-.06.78-.13,1.18-.22.4-.09.81-.19,1.25-.36.22-.09.46-.19.71-.34.25-.16.56-.37.83-.83.13-.23.23-.53.24-.82,0-.08,0-.12,0-.17,0-.05,0-.1-.01-.15,0-.1-.03-.2-.05-.3-.09-.4-.32-.78-.56-1.04-.24-.26-.5-.44-.74-.58-.24-.14-.47-.23-.69-.32-.45-.16-.86-.26-1.27-.34-.82-.16-1.6-.23-2.37-.29-1.54-.11-3.04-.14-4.53-.19-1.48-.05-2.96-.11-4.37-.28-.7-.09-1.4-.2-2.02-.37-.31-.09-.61-.19-.86-.31-.25-.12-.45-.26-.56-.37-.11-.12-.14-.19-.16-.31,0-.03,0-.06,0-.1v-.31c0-.21-.02-.41-.03-.61-.05-.79-.14-1.56-.23-2.32-.2-1.52-.45-3-.74-4.51l-.1-.54-.48-.28c-1.84-1.08-3.55-2.28-4.96-3.76-.7-.74-1.34-1.54-1.91-2.4-.57-.86-1.07-1.76-1.5-2.7-.85-1.87-1.39-3.89-1.57-5.93-.18-2.05,0-4.12.49-6.12,1.01-3.99,3.35-7.65,6.58-10.2,1.61-1.27,3.44-2.28,5.38-2.94,1.94-.67,4-.99,6.07-.99,2.07,0,4.12.33,6.07,1,1.94.66,3.77,1.67,5.38,2.95,3.23,2.56,5.57,6.22,6.57,10.21.5,2,.67,4.08.48,6.12-.04.51-.13,1.02-.22,1.52-.11.5-.22,1-.35,1.5-.26.99-.53,1.99-.92,2.95-.76,1.92-1.84,3.77-3.21,5.35-1.37,1.59-3.07,2.92-4.88,4.12l-.2.13-.02.19c-.14,1.27-.28,2.55-.41,3.83l-.39,3.83.86-3.75c.27-1.17.54-2.35.8-3.52.93-.48,1.85-1,2.74-1.58.94-.62,1.86-1.31,2.68-2.11.83-.79,1.6-1.66,2.28-2.59.68-.92,1.29-1.91,1.82-2.94.53-1.03.99-2.11,1.3-3.24.31-1.13.47-2.29.58-3.45.21-2.33.02-4.68-.55-6.94Z" fill="#fff"/><path d="M170.23,31.66c-.01-.61-.04-1.21-.09-1.81-.04-.6-.06-1.21-.08-1.81-.05-1.21-.08-2.42-.1-3.64-.03-1.21-.05-2.43-.09-3.66-.03-.62-.05-1.23-.13-1.88-.04-.33-.08-.65-.22-1.06-.04-.11-.09-.22-.18-.36-.09-.13-.26-.35-.6-.44-.33-.09-.65.03-.82.16-.18.12-.26.24-.34.34-.14.21-.22.38-.29.55-.07.17-.12.33-.18.49-.1.32-.18.62-.26.93-.15.61-.27,1.21-.39,1.81-.24,1.19-.47,2.39-.79,3.49-.08.27-.17.54-.28.76-.01.03-.03.05-.04.08-.08-.16-.15-.34-.22-.53-.18-.53-.31-1.1-.44-1.68-.12-.58-.24-1.17-.35-1.77-.11-.6-.22-1.2-.37-1.82-.08-.32-.15-.62-.31-1-.05-.1-.09-.21-.22-.36-.07-.08-.15-.18-.35-.28-.11-.05-.23-.08-.39-.08-.22,0-.41.12-.51.21-.2.2-.21.3-.25.38-.03.09-.05.15-.06.21-.03.12-.04.21-.05.31-.04.36-.04.67-.04.99,0,.31,0,.62,0,.93l.04,1.83c.03,1.21.04,2.41-.03,3.59-.04.58-.09,1.17-.2,1.7-.06.26-.13.52-.22.71-.04.09-.09.17-.12.2,0,0,0,0,0,0,0,0-.01,0-.03,0-.05-.02-.14-.06-.22-.12-.18-.12-.37-.3-.56-.5-.33-.36-.63-.77-.91-1.19.07-3.55.05-7.1-.18-10.66-.09-1.23-.2-2.46-.41-3.7-.11-.62-.23-1.24-.45-1.9-.06-.16-.12-.33-.21-.5-.09-.17-.19-.36-.37-.55-.09-.1-.2-.2-.37-.29-.08-.04-.18-.08-.28-.11-.05-.01-.1-.02-.16-.03-.05,0-.12,0-.13,0-.22,0-.45.03-.67.1-.46.14-.85.48-1.09.83-.24.35-.38.71-.47,1.05-.19.69-.23,1.35-.25,1.99-.02,1.29.12,2.53.3,3.75.09.61.19,1.22.3,1.82.1.6.23,1.22.36,1.83.28,1.22.63,2.41,1.07,3.59.41,1.09.91,2.16,1.53,3.19-.03,1.18-.07,2.36-.12,3.54,0,2.43-.03,4.85-.11,7.28-.04,1.21-.1,2.43-.18,3.64-.08,1.21-.18,2.42-.35,3.63.62-2.36,1.01-4.78,1.35-7.2.33-2.42.59-4.85.8-7.29.02-.57.03-1.14.05-1.71.2.21.42.41.69.61.16.11.34.22.58.3.23.08.54.13.86.06.32-.07.59-.27.76-.46.17-.19.28-.38.37-.56.17-.36.26-.7.33-1.03.14-.66.19-1.29.23-1.92.05-.88.05-1.75.04-2.61.11.51.24,1.02.41,1.55.11.32.23.63.43.98.11.17.23.37.5.56.13.09.32.19.53.22.21.03.46-.01.63-.09.35-.17.5-.39.63-.56.12-.18.21-.35.28-.51.15-.33.25-.64.35-.95.36-1.23.58-2.43.83-3.62.12-.59.24-1.18.38-1.76.01-.05.03-.09.04-.14.03.37.05.75.06,1.12.05,1.2.06,2.42.09,3.64.03,1.22.06,2.44.1,3.66l.07,1.83c.01.61.05,1.22.12,1.83.52,4.87,1.33,9.71,2.62,14.42-.71-4.82-1.08-9.66-1.15-14.51ZM157.87,24.02c-.41-1.1-.75-2.24-1.02-3.4-.26-1.15-.46-2.35-.64-3.53-.17-1.18-.3-2.37-.28-3.52.01-.57.06-1.14.19-1.62.07-.24.16-.45.26-.6.11-.15.21-.23.33-.27.03-.01.08-.01.12-.02.03.04.06.09.09.15.05.1.1.21.14.34.17.5.29,1.07.39,1.65.19,1.16.3,2.36.39,3.55.16,2.4.21,4.82.22,7.24,0,.15,0,.3,0,.45-.06-.14-.13-.28-.18-.43Z" fill="#df1f26"/></svg>